{
  "accessors": [
    {
      "bufferView": 2,
      "componentType": 5126,
      "count": 35010,
      "max": [
        11.609959602355957,
        2.654815196990967,
        0.811785876750946
      ],
      "min": [
        -7.147870063781738,
        -0.27401605248451233,
        -11.509293556213379
      ],
      "type": "VEC3"
    },
    {
      "bufferView": 2,
      "byteOffset": 420120,
      "componentType": 5126,
      "count": 35010,
      "max": [
        0.9998086094856262,
        1.0,
        1.0
      ],
      "min": [
        -0.9998091459274292,
        -1.0,
        -1.0
      ],
      "type": "VEC3"
    },
    {
      "bufferView": 3,
      "componentType": 5126,
      "count": 35010,
      "max": [
        0.9019607901573181,
        0.9254902005195618,
        0.9607843160629272,
        1.0
      ],
      "min": [
        0.20000000298023224,
        0.1764705926179886,
        0.1568627506494522,
        0.0
      ],
      "type": "VEC4"
    },
    {
      "bufferView": 1,
      "componentType": 5126,
      "count": 35010,
      "max": [
        12.315777778625488,
        1.0
      ],
      "min": [
        0.005174863617867231,
        0.0
      ],
      "type": "VEC2"
    },
    {
      "bufferView": 1,
      "byteOffset": 280080,
      "componentType": 5126,
      "count": 35010,
      "max": [
        12.315777778625488,
        1.0
      ],
      "min": [
        0.005174863617867231,
        0.0
      ],
      "type": "VEC2"
    },
    {
      "bufferView": 0,
      "componentType": 5125,
      "count": 99774,
      "type": "SCALAR"
    },
    {
      "bufferView": 2,
      "byteOffset": 840240,
      "componentType": 5126,
      "count": 42898,
      "max": [
        1.918229341506958,
        2.314140558242798,
        1.0415958166122437
      ],
      "min": [
        -1.3474979400634766,
        -0.06981932371854782,
        -2.0838212966918945
      ],
      "type": "VEC3"
    },
    {
      "bufferView": 2,
      "byteOffset": 1355016,
      "componentType": 5126,
      "count": 42898,
      "max": [
        0.9998601675033569,
        1.0,
        0.999993085861206
      ],
      "min": [
        -0.9999697208404541,
        -1.0,
        -0.9999908804893494
      ],
      "type": "VEC3"
    },
    {
      "bufferView": 3,
      "byteOffset": 560160,
      "componentType": 5126,
      "count": 42898,
      "max": [
        0.843137264251709,
        0.8470588326454163,
        0.8509804010391235,
        1.0
      ],
      "min": [
        0.08627451211214066,
        0.08235294371843338,
        0.08235294371843338,
        1.0
      ],
      "type": "VEC4"
    },
    {
      "bufferView": 1,
      "byteOffset": 560160,
      "componentType": 5126,
      "count": 42898,
      "max": [
        1.0,
        1.0
      ],
      "min": [
        0.0,
        0.0
      ],
      "type": "VEC2"
    },
    {
      "bufferView": 1,
      "byteOffset": 903344,
      "componentType": 5126,
      "count": 42898,
      "max": [
        1.0,
        1.0
      ],
      "min": [
        0.0,
        0.0
      ],
      "type": "VEC2"
    },
    {
      "bufferView": 0,
      "byteOffset": 399096,
      "componentType": 5125,
      "count": 120054,
      "type": "SCALAR"
    },
    {
      "bufferView": 2,
      "byteOffset": 1869792,
      "componentType": 5126,
      "count": 17102,
      "max": [
        12.517864227294922,
        2.6707160472869873,
        0.8076056838035583
      ],
      "min": [
        -8.025813102722168,
        -0.552638828754425,
        -23.511686325073242
      ],
      "type": "VEC3"
    },
    {
      "bufferView": 2,
      "byteOffset": 2075016,
      "componentType": 5126,
      "count": 17102,
      "max": [
        0.9998064041137695,
        0.9999691843986511,
        0.9999319911003113
      ],
      "min": [
        -0.999808132648468,
        -0.9999992251396179,
        -0.9999804496765137
      ],
      "type": "VEC3"
    },
    {
      "bufferView": 3,
      "byteOffset": 1246528,
      "componentType": 5126,
      "count": 17102,
      "max": [
        0.8313725590705872,
        0.8941176533699036,
        0.929411768913269,
        1.0
      ],
      "min": [
        0.27843138575553894,
        0.2549019753932953,
        0.23529411852359772,
        1.0
      ],
      "type": "VEC4"
    },
    {
      "bufferView": 1,
      "byteOffset": 1246528,
      "componentType": 5126,
      "count": 17102,
      "max": [
        0.0,
        1.0
      ],
      "min": [
        0.0,
        1.0
      ],
      "type": "VEC2"
    },
    {
      "bufferView": 0,
      "byteOffset": 879312,
      "componentType": 5125,
      "count": 17106,
      "type": "SCALAR"
    },
    {
      "bufferView": 2,
      "byteOffset": 2280240,
      "componentType": 5126,
      "count": 32024,
      "max": [
        17.66567039489746,
        2.6408679485321045,
        0.8046359419822693
      ],
      "min": [
        -11.24319839477539,
        -0.3744461238384247,
        -23.060434341430664
      ],
      "type": "VEC3"
    },
    {
      "bufferView": 2,
      "byteOffset": 2664528,
      "componentType": 5126,
      "count": 32024,
      "max": [
        1.0,
        1.0,
        1.0
      ],
      "min": [
        -1.0,
        -1.0,
        -1.0
      ],
      "type": "VEC3"
    },
    {
      "bufferView": 3,
      "byteOffset": 1520160,
      "componentType": 5126,
      "count": 32024,
      "max": [
        0.9607843160629272,
        0.9686274528503418,
        0.9607843160629272,
        1.0
      ],
      "min": [
        0.11764705926179886,
        0.1411764770746231,
        0.14901961386203766,
        0.0
      ],
      "type": "VEC4"
    },
    {
      "bufferView": 1,
      "byteOffset": 1383344,
      "componentType": 5126,
      "count": 32024,
      "max": [
        50.17237091064453,
        1.0
      ],
      "min": [
        0.0003425031900405884,
        0.0
      ],
      "type": "VEC2"
    },
    {
      "bufferView": 0,
      "byteOffset": 947736,
      "componentType": 5125,
      "count": 91350,
      "type": "SCALAR"
    },
    {
      "bufferView": 2,
      "byteOffset": 3048816,
      "componentType": 5126,
      "count": 6078,
      "max": [
        20.214635848999023,
        19.665517807006836,
        -1.4793859720230103
      ],
      "min": [
        -15.927742004394531,
        -1.0851049423217773,
        -26.05088233947754
      ],
      "type": "VEC3"
    },
    {
      "bufferView": 2,
      "byteOffset": 3121752,
      "componentType": 5126,
      "count": 6078,
      "max": [
        0.9974690079689026,
        0.9999275207519531,
        0.9999838471412659
      ],
      "min": [
        -0.9990750551223755,
        -0.9422029852867126,
        -0.9866892099380493
      ],
      "type": "VEC3"
    },
    {
      "bufferView": 3,
      "byteOffset": 2032544,
      "componentType": 5126,
      "count": 6078,
      "max": [
        0.8901960849761963,
        0.9490196108818054,
        0.9803921580314636,
        1.0
      ],
      "min": [
        0.11764705926179886,
        0.1411764770746231,
        0.14901961386203766,
        1.0
      ],
      "type": "VEC4"
    },
    {
      "bufferView": 1,
      "byteOffset": 1639536,
      "componentType": 5126,
      "count": 6078,
      "max": [
        1.0,
        1.0
      ],
      "min": [
        0.0,
        0.0
      ],
      "type": "VEC2"
    },
    {
      "bufferView": 1,
      "byteOffset": 1688160,
      "componentType": 5126,
      "count": 6078,
      "max": [
        1.0,
        1.0
      ],
      "min": [
        0.0,
        0.0
      ],
      "type": "VEC2"
    },
    {
      "bufferView": 0,
      "byteOffset": 1313136,
      "componentType": 5125,
      "count": 17544,
      "type": "SCALAR"
    },
    {
      "bufferView": 2,
      "byteOffset": 3194688,
      "componentType": 5126,
      "count": 4,
      "max": [
        0.0359223298728466,
        0.05000000074505806,
        3.0616169246677665e-18
      ],
      "min": [
        -0.0359223298728466,
        -0.05000000074505806,
        -3.0616169246677665e-18
      ],
      "type": "VEC3"
    },
    {
      "bufferView": 2,
      "byteOffset": 3194736,
      "componentType": 5126,
      "count": 4,
      "max": [
        0.0,
        0.0,
        -1.0
      ],
      "min": [
        0.0,
        0.0,
        -1.0
      ],
      "type": "VEC3"
    },
    {
      "bufferView": 3,
      "byteOffset": 2129792,
      "componentType": 5126,
      "count": 4,
      "max": [
        1.0,
        1.0,
        1.0,
        1.0
      ],
      "min": [
        1.0,
        1.0,
        1.0,
        1.0
      ],
      "type": "VEC4"
    },
    {
      "bufferView": 1,
      "byteOffset": 1736784,
      "componentType": 5126,
      "count": 4,
      "max": [
        1.0,
        1.0
      ],
      "min": [
        0.0,
        0.0
      ],
      "type": "VEC2"
    },
    {
      "bufferView": 0,
      "byteOffset": 1383312,
      "componentType": 5125,
      "count": 6,
      "type": "SCALAR"
    }
  ],
  "asset": {
    "extras": {
      "author": "betocarrillo (https://sketchfab.com/betocarrillo)",
      "license": "CC-BY-SA-4.0 (http://creativecommons.org/licenses/by-sa/4.0/)",
      "source": "https://sketchfab.com/3d-models/woman-at-the-window-by-dali-11039ba1a12b40cbb7c3b3a355f49501",
      "title": "Woman at the window by Dali"
    },
    "generator": "Sketchfab-12.67.0",
    "version": "2.0"
  },
  "bufferViews": [
    {
      "buffer": 0,
      "byteLength": 1383336,
      "name": "floatBufferViews",
      "target": 34963
    },
    {
      "buffer": 0,
      "byteLength": 1736816,
      "byteOffset": 1383336,
      "byteStride": 8,
      "name": "floatBufferViews",
      "target": 34962
    },
    {
      "buffer": 0,
      "byteLength": 3194784,
      "byteOffset": 3120152,
      "byteStride": 12,
      "name": "floatBufferViews",
      "target": 34962
    },
    {
      "buffer": 0,
      "byteLength": 2129856,
      "byteOffset": 6314936,
      "byteStride": 16,
      "name": "floatBufferViews",
      "target": 34962
    }
  ],
  "buffers": [
    {
      "byteLength": 8444792,
      "uri": "scene.bin"
    }
  ],
  "extensionsUsed": [
    "KHR_materials_unlit"
  ],
  "images": [
    {
      "uri": "textures/brush_ThickPaint_baseColor.png"
    },
    {
      "uri": "textures/brush_Ink_baseColor.png"
    },
    {
      "uri": "textures/brush_Marker_baseColor.png"
    },
    {
      "uri": "textures/brush_OilPaint_baseColor.png"
    },
    {
      "uri": "textures/media_image_AS02157_baseColor.jpeg"
    }
  ],
  "materials": [
    {
      "alphaMode": "MASK",
      "doubleSided": true,
      "extensions": {
        "KHR_materials_unlit": {}
      },
      "name": "brush_ThickPaint",
      "pbrMetallicRoughness": {
        "baseColorTexture": {
          "index": 0
        },
        "metallicFactor": 0.0
      }
    },
    {
      "alphaMode": "MASK",
      "doubleSided": true,
      "extensions": {
        "KHR_materials_unlit": {}
      },
      "name": "brush_Ink",
      "pbrMetallicRoughness": {
        "baseColorTexture": {
          "index": 1
        },
        "metallicFactor": 0.0
      }
    },
    {
      "doubleSided": true,
      "extensions": {
        "KHR_materials_unlit": {}
      },
      "name": "brush_UnlitHull",
      "pbrMetallicRoughness": {
        "metallicFactor": 0.0
      }
    },
    {
      "alphaCutoff": 0.067,
      "alphaMode": "MASK",
      "doubleSided": true,
      "extensions": {
        "KHR_materials_unlit": {}
      },
      "name": "brush_Marker",
      "pbrMetallicRoughness": {
        "baseColorTexture": {
          "index": 2
        },
        "metallicFactor": 0.0
      }
    },
    {
      "alphaMode": "MASK",
      "doubleSided": true,
      "extensions": {
        "KHR_materials_unlit": {}
      },
      "name": "brush_OilPaint",
      "pbrMetallicRoughness": {
        "baseColorTexture": {
          "index": 3
        },
        "metallicFactor": 0.0
      }
    },
    {
      "doubleSided": true,
      "extensions": {
        "KHR_materials_unlit": {}
      },
      "name": "media_image_AS02157",
      "pbrMetallicRoughness": {
        "baseColorTexture": {
          "index": 4
        },
        "metallicFactor": 0.0
      }
    }
  ],
  "meshes": [
    {
      "name": "Object_0",
      "primitives": [
        {
          "attributes": {
            "COLOR_0": 2,
            "NORMAL": 1,
            "POSITION": 0,
            "TEXCOORD_0": 3,
            "TEXCOORD_1": 4
          },
          "indices": 5,
          "material": 0,
          "mode": 4
        }
      ]
    },
    {
      "name": "Object_1",
      "primitives": [
        {
          "attributes": {
            "COLOR_0": 8,
            "NORMAL": 7,
            "POSITION": 6,
            "TEXCOORD_0": 9,
            "TEXCOORD_1": 10
          },
          "indices": 11,
          "material": 1,
          "mode": 4
        }
      ]
    },
    {
      "name": "Object_2",
      "primitives": [
        {
          "attributes": {
            "COLOR_0": 14,
            "NORMAL": 13,
            "POSITION": 12,
            "TEXCOORD_0": 15
          },
          "indices": 16,
          "material": 2,
          "mode": 4
        }
      ]
    },
    {
      "name": "Object_3",
      "primitives": [
        {
          "attributes": {
            "COLOR_0": 19,
            "NORMAL": 18,
            "POSITION": 17,
            "TEXCOORD_0": 20
          },
          "indices": 21,
          "material": 3,
          "mode": 4
        }
      ]
    },
    {
      "name": "Object_4",
      "primitives": [
        {
          "attributes": {
            "COLOR_0": 24,
            "NORMAL": 23,
            "POSITION": 22,
            "TEXCOORD_0": 25,
            "TEXCOORD_1": 26
          },
          "indices": 27,
          "material": 4,
          "mode": 4
        }
      ]
    },
    {
      "name": "Object_5",
      "primitives": [
        {
          "attributes": {
            "COLOR_0": 30,
            "NORMAL": 29,
            "POSITION": 28,
            "TEXCOORD_0": 31
          },
          "indices": 32,
          "material": 5,
          "mode": 4
        }
      ]
    }
  ],
  "nodes": [
    {
      "children": [
        1
      ],
      "matrix": [
        0.9405815601348877,
        0.0,
        0.0,
        0.0,
        0.0,
        2.0885106091992072e-16,
        -0.9405815601348877,
        0.0,
        0.0,
        0.9405815601348877,
        2.0885106091992072e-16,
        0.0,
        0.0,
        0.0,
        0.0,
        1.0
      ],
      "name": "Sketchfab_model"
    },
    {
      "children": [
        2
      ],
      "name": "root"
    },
    {
      "children": [
        3,
        5,
        7,
        9,
        11,
        13
      ],
      "matrix": [
        1.0,
        0.0,
        0.0,
        0.0,
        0.0,
        2.220446049250313e-16,
        1.0,
        0.0,
        0.0,
        -1.0,
        2.220446049250313e-16,
        0.0,
        0.0,
        0.0,
        0.0,
        1.0
      ],
      "name": "GLTF_SceneRootNode"
    },
    {
      "children": [
        4
      ],
      "name": "brush_ThickPaint_g0_b0_0"
    },
    {
      "mesh": 0,
      "name": "Object_4"
    },
    {
      "children": [
        6
      ],
      "name": "brush_Ink_g0_b0_3"
    },
    {
      "mesh": 1,
      "name": "Object_6"
    },
    {
      "children": [
        8
      ],
      "name": "brush_UnlitHull_g0_b0_4"
    },
    {
      "mesh": 2,
      "name": "Object_8"
    },
    {
      "children": [
        10
      ],
      "name": "brush_Marker_g0_b0_5"
    },
    {
      "mesh": 3,
      "name": "Object_10"
    },
    {
      "children": [
        12
      ],
      "name": "brush_OilPaint_g0_b0_6"
    },
    {
      "mesh": 4,
      "name": "Object_12"
    },
    {
      "children": [
        14
      ],
      "matrix": [
        29.167579650878906,
        -0.05941146984696388,
        0.7924752235412598,
        0.0,
        0.05563199147582054,
        29.178010940551758,
        0.13988859951496124,
        0.0,
        -0.7927495241165161,
        -0.13832570612430573,
        29.167299270629883,
        0.0,
        0.1741034984588623,
        1.338502049446106,
        2.800734043121338,
        1.0
      ],
      "name": "image_AS02157_0_7"
    },
    {
      "mesh": 5,
      "name": "Object_14"
    }
  ],
  "samplers": [
    {
      "magFilter": 9729,
      "minFilter": 9987,
      "wrapS": 10497,
      "wrapT": 10497
    }
  ],
  "scene": 0,
  "scenes": [
    {
      "name": "Sketchfab_Scene",
      "nodes": [
        0
      ]
    }
  ],
  "textures": [
    {
      "sampler": 0,
      "source": 0
    },
    {
      "sampler": 0,
      "source": 1
    },
    {
      "sampler": 0,
      "source": 2
    },
    {
      "sampler": 0,
      "source": 3
    },
    {
      "sampler": 0,
      "source": 4
    }
  ]
}
